<svg xmlns="http://www.w3.org/2000/svg" width="420" height="420" viewBox="0 0 420 420" fill="none">
  <desc>Food background pattern using MIT-licensed Tabler Icons: pizza, soup, egg-fried, fish, bread, burger, salad, ice-cream-2, and cookie.</desc>
  <g stroke-linecap="round" stroke-linejoin="round" stroke-width="2.2" vector-effect="non-scaling-stroke" opacity=".72">
    <g transform="translate(22 28) rotate(-13) scale(3.05)" stroke="#a95a4c">
      <path d="M12 21.5c-3.04 0 -5.952 -.714 -8.5 -1.983l8.5 -16.517l8.5 16.517a19.09 19.09 0 0 1 -8.5 1.983" />
      <path d="M5.38 15.866a14.94 14.94 0 0 0 6.815 1.634a14.944 14.944 0 0 0 6.502 -1.479" />
      <path d="M13 11.01v-.01" />
      <path d="M11 14v-.01" />
    </g>

    <g transform="translate(176 30) rotate(8) scale(3.1)" stroke="#617d5a">
      <path d="M4 11h16a1 1 0 0 1 1 1v.5c0 1.5 -2.517 5.573 -4 6.5v1a1 1 0 0 1 -1 1h-8a1 1 0 0 1 -1 -1v-1c-1.687 -1.054 -4 -5 -4 -6.5v-.5a1 1 0 0 1 1 -1" />
      <path d="M12 4a2.4 2.4 0 0 0 -1 2a2.4 2.4 0 0 0 1 2" />
      <path d="M16 4a2.4 2.4 0 0 0 -1 2a2.4 2.4 0 0 0 1 2" />
      <path d="M8 4a2.4 2.4 0 0 0 -1 2a2.4 2.4 0 0 0 1 2" />
    </g>

    <g transform="translate(314 38) rotate(-7) scale(2.85)" stroke="#b68847">
      <path d="M9 12a3 3 0 1 0 6 0a3 3 0 1 0 -6 0" />
      <path d="M14 3a5 5 0 0 1 4.872 6.13a3 3 0 0 1 .178 5.681a3 3 0 1 1 -4.684 3.626a5 5 0 1 1 -8.662 -5a5 5 0 1 1 4.645 -8.856a4.982 4.982 0 0 1 3.651 -1.585l0 .004" />
    </g>

    <g transform="translate(58 150) rotate(10) scale(3)" stroke="#45636b">
      <path d="M16.69 7.44a6.973 6.973 0 0 0 -1.69 4.56c0 1.747 .64 3.345 1.699 4.571" />
      <path d="M2 9.504c7.715 8.647 14.75 10.265 20 2.498c-5.25 -7.761 -12.285 -6.142 -20 2.504" />
      <path d="M18 11v.01" />
      <path d="M11.5 10.5c-.667 1 -.667 2 0 3" />
    </g>

    <g transform="translate(210 152) rotate(-11) scale(2.9)" stroke="#825a37">
      <path d="M18 4a3 3 0 0 1 2 5.235v8.765a2 2 0 0 1 -2 2h-12a2 2 0 0 1 -2 -2v-8.764a3 3 0 0 1 1.824 -5.231h12.176v-.005" />
    </g>

    <g transform="translate(330 170) rotate(7) scale(2.75)" stroke="#a95a4c">
      <path d="M4 15h16a4 4 0 0 1 -4 4h-8a4 4 0 0 1 -4 -4" />
      <path d="M12 4c3.783 0 6.953 2.133 7.786 5h-15.572c.833 -2.867 4.003 -5 7.786 -5" />
      <path d="M5 12h14" />
    </g>

    <g transform="translate(38 292) rotate(-8) scale(2.85)" stroke="#617d5a">
      <path d="M4 11h16a1 1 0 0 1 1 1v.5c0 1.5 -2.517 5.573 -4 6.5v1a1 1 0 0 1 -1 1h-8a1 1 0 0 1 -1 -1v-1c-1.687 -1.054 -4 -5 -4 -6.5v-.5a1 1 0 0 1 1 -1" />
      <path d="M18.5 11c.351 -1.017 .426 -2.236 .5 -3.714v-1.286h-2.256c-2.83 0 -4.616 .804 -5.64 2.076" />
      <path d="M5.255 11.008a12.204 12.204 0 0 1 -.255 -2.008v-1h1.755c.98 0 1.801 .124 2.479 .35" />
      <path d="M8 8l1 -4l4 2.5" />
      <path d="M13 11v-.5a2.5 2.5 0 1 0 -5 0v.5" />
    </g>

    <g transform="translate(186 306) rotate(12) scale(2.9)" stroke="#b68847">
      <path d="M17.657 11a6 6 0 1 0 -11.315 0" />
      <path d="M6.342 11l5.658 11l5.657 -11l-11.315 0" />
    </g>

    <g transform="translate(318 296) rotate(-9) scale(2.65)" stroke="#825a37">
      <path d="M8 13v.01" />
      <path d="M12 17v.01" />
      <path d="M12 12v.01" />
      <path d="M16 14v.01" />
      <path d="M11 8v.01" />
      <path d="M13.148 3.476l2.667 1.104a4 4 0 0 0 4.656 6.14l.053 .132a3 3 0 0 1 0 2.296q -.745 1.18 -1.024 1.852q -.283 .684 -.66 2.216a3 3 0 0 1 -1.624 1.623q -1.572 .394 -2.216 .661q -.712 .295 -1.852 1.024a3 3 0 0 1 -2.296 0q -1.203 -.754 -1.852 -1.024q -.707 -.292 -2.216 -.66a3 3 0 0 1 -1.623 -1.624q -.397 -1.577 -.661 -2.216q -.298 -.718 -1.024 -1.852a3 3 0 0 1 0 -2.296q .719 -1.116 1.024 -1.852q .257 -.62 .66 -2.216a3 3 0 0 1 1.624 -1.623q 1.547 -.384 2.216 -.661q .687 -.285 1.852 -1.024a3 3 0 0 1 2.296 0" />
    </g>
  </g>
</svg>
